<svg width="49" height="21" viewBox="0 0 49 21" fill="none" xmlns="http://www.w3.org/2000/svg">
<path d="M2.03198 9.32118C1.29599 9.32118 0.699344 9.91783 0.699344 10.6538C0.699344 11.3898 1.29599 11.9865 2.03198 11.9865V9.32118ZM48.284 11.5961C48.8045 11.0757 48.8045 10.2319 48.284 9.71151L39.8032 1.23064C39.2827 0.710216 38.439 0.710216 37.9185 1.23064C37.3981 1.75107 37.3981 2.59485 37.9185 3.11528L45.4571 10.6538L37.9185 18.1924C37.3981 18.7128 37.3981 19.5566 37.9185 20.077C38.439 20.5974 39.2827 20.5974 39.8032 20.077L48.284 11.5961ZM2.03198 11.9865H47.3417V9.32118H2.03198V11.9865Z" fill="black"/>
</svg>
