<svg width="100" height="100" viewBox="0 0 100 100" fill="none" xmlns="http://www.w3.org/2000/svg">
<path fill-rule="evenodd" clip-rule="evenodd" d="M92.2687 0.468137C92.7214 0.748102 93.0951 1.13905 93.3543 1.60391C93.6135 2.06877 93.7497 2.59213 93.75 3.12439V96.8744C93.75 97.7032 93.4208 98.498 92.8347 99.0841C92.2487 99.6701 91.4538 99.9994 90.625 99.9994H71.875C71.0462 99.9994 70.2513 99.6701 69.6653 99.0841C69.0792 98.498 68.75 97.7032 68.75 96.8744V87.4994H62.5V96.8744C62.5 97.7032 62.1708 98.498 61.5847 99.0841C60.9987 99.6701 60.2038 99.9994 59.375 99.9994H3.125C2.2962 99.9994 1.50134 99.6701 0.915291 99.0841C0.32924 98.498 0 97.7032 0 96.8744V62.4994C0.000497792 61.8438 0.207176 61.2049 0.590781 60.6733C0.974386 60.1416 1.51549 59.7441 2.1375 59.5369L37.5 47.7494V28.1244C37.5 27.5445 37.6614 26.9761 37.966 26.4827C38.2707 25.9893 38.7066 25.5904 39.225 25.3306L89.225 0.330637C89.7019 0.0919238 90.232 -0.0207617 90.7648 0.00330632C91.2975 0.0273744 91.8153 0.187395 92.2687 0.468137ZM37.5 54.3369L6.25 64.7494V93.7494H37.5V54.3369ZM43.75 93.7494H56.25V84.3744C56.25 83.5456 56.5792 82.7507 57.1653 82.1647C57.7513 81.5786 58.5462 81.2494 59.375 81.2494H71.875C72.7038 81.2494 73.4987 81.5786 74.0847 82.1647C74.6708 82.7507 75 83.5456 75 84.3744V93.7494H87.5V8.18064L43.75 30.0556V93.7494Z" fill="#7A7878"/>
<path d="M12.5 68.75H18.75V75H12.5V68.75ZM25 68.75H31.25V75H25V68.75ZM12.5 81.25H18.75V87.5H12.5V81.25ZM25 81.25H31.25V87.5H25V81.25ZM50 56.25H56.25V62.5H50V56.25ZM62.5 56.25H68.75V62.5H62.5V56.25ZM50 68.75H56.25V75H50V68.75ZM62.5 68.75H68.75V75H62.5V68.75ZM75 56.25H81.25V62.5H75V56.25ZM75 68.75H81.25V75H75V68.75ZM50 43.75H56.25V50H50V43.75ZM62.5 43.75H68.75V50H62.5V43.75ZM75 43.75H81.25V50H75V43.75ZM50 31.25H56.25V37.5H50V31.25ZM62.5 31.25H68.75V37.5H62.5V31.25ZM75 31.25H81.25V37.5H75V31.25ZM75 18.75H81.25V25H75V18.75Z" fill="#7A7878"/>
</svg>
