<svg width="30" height="30" viewBox="0 0 30 30" fill="none" xmlns="http://www.w3.org/2000/svg">
<path d="M3.75 24.6537V26.25C3.75 26.5815 3.8817 26.8995 4.11612 27.1339C4.35054 27.3683 4.66848 27.5 5 27.5H6.25C6.58152 27.5 6.89946 27.3683 7.13388 27.1339C7.3683 26.8995 7.5 26.5815 7.5 26.25V25H22.5V26.25C22.5 26.5815 22.6317 26.8995 22.8661 27.1339C23.1005 27.3683 23.4185 27.5 23.75 27.5H25C25.3315 27.5 25.6495 27.3683 25.8839 27.1339C26.1183 26.8995 26.25 26.5815 26.25 26.25V24.6537C26.6292 24.4363 26.9445 24.1227 27.1639 23.7446C27.3834 23.3664 27.4993 22.9372 27.5 22.5V18.75C27.5 17.7113 26.8662 16.8225 25.965 16.4437L24.255 11.3138C24.0069 10.5669 23.5298 9.91713 22.8914 9.45689C22.253 8.99664 21.4858 8.7493 20.6987 8.75H9.30125C8.51424 8.7493 7.74702 8.99664 7.10861 9.45689C6.47019 9.91713 5.99306 10.5669 5.745 11.3138L4.035 16.4437C3.58038 16.6342 3.19214 16.9546 2.91904 17.3649C2.64595 17.7753 2.50016 18.2571 2.5 18.75V22.5C2.5 23.4225 3.005 24.22 3.75 24.6537ZM6.875 22.5C6.62869 22.4999 6.38481 22.4513 6.15728 22.357C5.92975 22.2627 5.72303 22.1244 5.54892 21.9502C5.19729 21.5983 4.99983 21.1212 5 20.6238C5.00017 20.1263 5.19793 19.6493 5.5498 19.2977C5.90166 18.946 6.3788 18.7486 6.87625 18.7487C7.3737 18.7489 7.8507 18.9467 8.20233 19.2985C8.55396 19.6504 8.75142 20.1276 8.75125 20.625C8.75108 21.1224 8.55332 21.5995 8.20145 21.9511C7.84959 22.3027 7.37245 22.5002 6.875 22.5ZM23.125 22.5C22.6276 22.4998 22.1505 22.3021 21.7989 21.9502C21.4473 21.5983 21.2498 21.1212 21.25 20.6238C21.2502 20.1263 21.4479 19.6493 21.7998 19.2977C22.1517 18.946 22.6288 18.7486 23.1262 18.7487C23.6237 18.7489 24.1007 18.9467 24.4523 19.2985C24.804 19.6504 25.0014 20.1276 25.0012 20.625C25.0011 21.1224 24.8033 21.5995 24.4515 21.9511C24.0996 22.3027 23.6224 22.5002 23.125 22.5ZM9.30125 11.25H20.6975C20.96 11.2499 21.2158 11.3325 21.4287 11.4859C21.6416 11.6394 21.8008 11.856 21.8838 12.105L23.2663 16.25H6.73375L8.115 12.105C8.28625 11.5938 8.76375 11.25 9.30125 11.25Z" fill="#5367FC"/>
<path d="M27.5 9.23514V6.59889L15.395 2.56389C15.1275 2.47435 14.8375 2.47831 14.5725 2.57514L2.5 6.96514V9.62514L15.0188 5.07264L27.5 9.23514Z" fill="#5367FC"/>
</svg>
