<svg width="100" height="100" viewBox="0 0 100 100" fill="none" xmlns="http://www.w3.org/2000/svg">
<path d="M90.625 18.75H9.375C7.71797 18.7519 6.12934 19.4109 4.95764 20.5826C3.78594 21.7543 3.12686 23.343 3.125 25V75C3.12686 76.657 3.78594 78.2457 4.95764 79.4174C6.12934 80.5891 7.71797 81.2481 9.375 81.25H90.625C92.282 81.2481 93.8707 80.5891 95.0424 79.4174C96.2141 78.2457 96.8731 76.657 96.875 75V25C96.8731 23.343 96.2141 21.7543 95.0424 20.5826C93.8707 19.4109 92.282 18.7519 90.625 18.75ZM9.375 75V25H18.75V75.0035H9.375V75ZM25 25H75V75L25 75.0025V25ZM90.625 75H81.25V25H90.625V75Z" fill="#7A7878"/>
<path d="M38.3333 66.6667H61.6667C62.5507 66.6667 63.3986 66.3155 64.0237 65.6904C64.6488 65.0653 65 64.2174 65 63.3334V48.3334C65.0013 48.114 64.9592 47.8966 64.8763 47.6935C64.7933 47.4904 64.6711 47.3058 64.5167 47.15L51.1833 33.8167C50.8711 33.5063 50.4486 33.332 50.0083 33.332C49.568 33.332 49.1456 33.5063 48.8333 33.8167L35.5 47.15C35.3425 47.3044 35.2172 47.4885 35.1314 47.6916C35.0456 47.8947 35.0009 48.1128 35 48.3334V63.3334C35 64.2174 35.3512 65.0653 35.9763 65.6904C36.6014 66.3155 37.4493 66.6667 38.3333 66.6667ZM46.6667 63.3334V55H53.3333V63.3334H46.6667ZM38.3333 49.0167L50 37.35L61.6667 49.0167V63.3334H56.6667V55C56.6667 54.116 56.3155 53.2681 55.6904 52.643C55.0652 52.0179 54.2174 51.6667 53.3333 51.6667H46.6667C45.7826 51.6667 44.9348 52.0179 44.3096 52.643C43.6845 53.2681 43.3333 54.116 43.3333 55V63.3334H38.3333V49.0167Z" fill="#7A7878"/>
</svg>
