<svg width="30" height="30" viewBox="0 0 30 30" fill="none" xmlns="http://www.w3.org/2000/svg">
<path d="M20.75 11.8799C21 11.1299 21.25 10.2549 21.25 9.37988C21.25 5.62988 18.5 2.50488 15 2.50488C11.5 2.50488 8.75 5.62988 8.75 9.37988C8.75 10.2549 8.875 11.1299 9.25 11.8799C6.125 12.0049 3.75 14.2549 3.75 17.2549C3.75 20.3799 6.25 22.5049 9.375 22.5049C9.375 22.5049 12.5 22.5049 13.75 21.2549C13.75 21.2549 14.125 23.7549 11.25 27.5049H18.75C15.875 23.7549 16.25 21.2549 16.25 21.2549C17.5 22.5049 20.625 22.5049 20.625 22.5049C23.75 22.5049 26.25 20.3799 26.25 17.2549C26.25 14.2549 23.875 12.0049 20.75 11.8799ZM20.625 20.0049C20.625 20.0049 17.5 20.0049 16.25 18.7549H13.75C12.5 20.0049 9.375 20.0049 9.375 20.0049C7.875 20.0049 6.25 19.1299 6.25 17.2549C6.25 15.6299 7.625 14.3799 9.375 14.3799C9.75 14.3799 10.375 14.5049 11 14.6299C11.125 14.6299 11.25 14.7549 11.375 14.7549L12.5 12.6299C12.25 12.3799 12.125 12.1299 12 11.8799C11.5 11.1299 11.25 10.3799 11.25 9.37988C11.25 7.00488 12.875 5.00488 15 5.00488C17.125 5.00488 18.75 7.00488 18.75 9.37988C18.75 10.3799 18.5 11.2549 18 12.0049C17.875 12.2549 17.75 12.3799 17.625 12.6299L18.75 14.7549C18.875 14.7549 19 14.6299 19.125 14.6299C19.625 14.5049 20.25 14.3799 20.75 14.3799C22.5 14.3799 23.875 15.6299 23.875 17.2549C23.75 19.1299 22.125 20.0049 20.625 20.0049Z" fill="#5367FC"/>
</svg>
