<svg width="35" height="35" viewBox="0 0 35 35" fill="none" xmlns="http://www.w3.org/2000/svg">
<path d="M30.625 9.47917V20.4167H27.7083V10.9375L20.4167 5.83333L13.125 10.9375V13.125H10.2083V9.47917L20.4167 2.1875L30.625 9.47917ZM22.6042 10.2083H21.1458V11.6667H22.6042V10.2083ZM19.6875 10.2083H18.2292V11.6667H19.6875V10.2083ZM22.6042 13.125H21.1458V14.5833H22.6042V13.125ZM19.6875 13.125H18.2292V14.5833H19.6875V13.125ZM27.7083 23.3333H24.7917C24.7917 21.5833 23.6979 20.0083 22.0646 19.3958L13.0813 16.0417H1.45834V32.0833H10.2083V29.9833L20.4167 32.8125L32.0833 29.1667V27.7083C32.0833 25.2875 30.1292 23.3333 27.7083 23.3333ZM4.375 29.1667V18.9583H7.29167V29.1667H4.375ZM20.3729 29.7646L10.2083 26.95V18.9583H12.5563L21.0438 22.1229C21.5396 22.3125 21.875 22.7938 21.875 23.3333C21.875 23.3333 18.9729 23.2604 18.5208 23.1146L15.05 21.9625L14.1313 24.7333L17.6021 25.8854C18.3458 26.1333 19.1188 26.2646 19.9063 26.2646H27.7083C28.2771 26.2646 28.7875 26.6 29.0208 27.0813L20.3729 29.7646Z" fill="#03D8A7"/>
</svg>
