<svg width="100" height="100" viewBox="0 0 100 100" fill="none" xmlns="http://www.w3.org/2000/svg">
<g clip-path="url(#clip0_6_107)">
<path d="M96.835 90.51L90 70H82.5L86.665 90H13.335L17.5 70H9.99999L3.15999 90.51C1.42499 95.73 4.49999 100 9.99999 100H90C95.5 100 98.575 95.73 96.835 90.51ZM75 25C75 18.3696 72.3661 12.0107 67.6777 7.32233C62.9893 2.63392 56.6304 0 50 0C43.3696 0 37.0107 2.63392 32.3223 7.32233C27.6339 12.0107 25 18.3696 25 25C25 48.875 50 75 50 75C50 75 75 48.875 75 25ZM36.5 25.3C36.5 17.845 42.54 11.805 50 11.805C53.5798 11.805 57.0129 13.2271 59.5442 15.7583C62.0754 18.2896 63.4975 21.7227 63.4975 25.3025C63.4975 28.8823 62.0754 32.3154 59.5442 34.8467C57.0129 37.3779 53.5798 38.8 50 38.8C46.4196 38.8 42.9858 37.3777 40.454 34.8459C37.9223 32.3142 36.5 28.8804 36.5 25.3Z" fill="#7A7878"/>
</g>
<defs>
<clipPath id="clip0_6_107">
<rect width="100" height="100" fill="white"/>
</clipPath>
</defs>
</svg>
