<svg width="30" height="30" viewBox="0 0 30 30" fill="none" xmlns="http://www.w3.org/2000/svg">
<path d="M10 11.25C10 9.92392 10.5268 8.65215 11.4645 7.71447C12.4021 6.77678 13.6739 6.25 15 6.25V6.25C16.3261 6.25 17.5979 6.77678 18.5355 7.71447C19.4732 8.65215 20 9.92392 20 11.25V26.25C20 26.5815 19.8683 26.8995 19.6339 27.1339C19.3995 27.3683 19.0815 27.5 18.75 27.5H11.25C10.9185 27.5 10.6005 27.3683 10.3661 27.1339C10.1317 26.8995 10 26.5815 10 26.25V11.25Z" stroke="#5367FC" stroke-width="4" stroke-linejoin="round"/>
<path d="M15 15V21.25" stroke="#5367FC" stroke-width="4" stroke-linecap="round" stroke-linejoin="round"/>
<path d="M12.5 3.125H18.125V5.625H12.5V3.125Z" stroke="#5367FC" stroke-width="4" stroke-linejoin="round"/>
<path d="M18.125 3.125L23.75 2.5V6.25L18.125 5.625V3.125Z" stroke="#5367FC" stroke-width="4" stroke-linejoin="round"/>
<path d="M12.5 4.37512C10.625 4.37512 7.8125 4.06262 6.25 5.62512C4.73938 7.13574 5 8.75012 5 11.2501" stroke="#5367FC" stroke-width="4" stroke-linecap="round" stroke-linejoin="round"/>
</svg>
