<svg width="35" height="35" viewBox="0 0 35 35" fill="none" xmlns="http://www.w3.org/2000/svg">
<path d="M17.5 2.91504C25.5558 2.91504 32.0863 9.44546 32.0863 17.5013C32.0863 18.0715 32.0527 18.6344 31.9885 19.1886C31.3797 18.5644 30.6734 18.0433 29.8973 17.6457V17.4998C29.8973 16.495 29.7792 15.5165 29.5531 14.5832H24.656C24.729 15.3386 24.7727 16.1144 24.7873 16.9034C24.0158 17.0463 23.2838 17.2971 22.6056 17.6442V17.5013C22.6056 16.4936 22.5531 15.518 22.454 14.5832H12.546C12.2895 17.0118 12.3557 19.4636 12.7429 21.8748H18.776C18.5025 22.5761 18.3296 23.3126 18.2627 24.0623H13.2125C14.1633 27.5827 15.8171 29.8986 17.5 29.8986C18.1621 29.8986 18.8213 29.5384 19.4338 28.8865C19.9602 29.7848 20.6471 30.6686 21.474 31.5377C20.2096 31.895 18.8767 32.0861 17.4985 32.0861C9.44417 32.0861 2.91667 25.5557 2.91667 17.5013C2.91521 9.44546 9.44417 2.91504 17.5 2.91504ZM10.9492 24.0638H6.97959C8.38784 26.3163 10.48 28.0589 12.95 29.0367C12.1888 27.8409 11.5602 26.3446 11.0979 24.6398L10.9492 24.0638ZM10.3454 14.5832H5.44834L5.44105 14.608C5.21526 15.5558 5.10171 16.5269 5.10271 17.5013C5.10271 19.0413 5.38271 20.5157 5.89605 21.8763H10.5233C10.3102 20.4273 10.2049 18.9644 10.2083 17.4998C10.2083 16.5023 10.255 15.5252 10.3469 14.5817L10.3454 14.5832ZM12.95 5.96441L12.9165 5.97608C9.93186 7.16786 7.52423 9.46836 6.19792 12.3957H10.6429C11.1008 9.84066 11.8971 7.61525 12.9515 5.96441H12.95ZM17.5 5.10254L17.3294 5.10983C15.4875 5.279 13.704 8.19858 12.8771 12.3957H22.1258C21.3004 8.21025 19.5256 5.29504 17.6852 5.11129L17.5 5.104V5.10254ZM22.05 5.96296L22.2046 6.21816C23.1817 7.83983 23.921 9.969 24.3556 12.3971H28.8006C27.5346 9.60308 25.2812 7.3751 22.4729 6.14087L22.05 5.96441V5.96296Z" fill="#5367FC"/>
<path d="M32.8125 24.7915C32.8125 23.051 32.1211 21.3818 30.8904 20.1511C29.6597 18.9204 27.9905 18.229 26.25 18.229C24.5095 18.229 22.8403 18.9204 21.6096 20.1511C20.3789 21.3818 19.6875 23.051 19.6875 24.7915C19.6875 27.5084 21.7583 30.355 25.8125 33.3957C25.9387 33.4903 26.0922 33.5415 26.25 33.5415C26.4078 33.5415 26.5613 33.4903 26.6875 33.3957C30.7417 30.355 32.8125 27.5084 32.8125 24.7915ZM24.0625 24.7915C24.0625 24.2113 24.293 23.6549 24.7032 23.2447C25.1134 22.8345 25.6698 22.604 26.25 22.604C26.8302 22.604 27.3866 22.8345 27.7968 23.2447C28.207 23.6549 28.4375 24.2113 28.4375 24.7915C28.4375 25.3717 28.207 25.9281 27.7968 26.3383C27.3866 26.7485 26.8302 26.979 26.25 26.979C25.6698 26.979 25.1134 26.7485 24.7032 26.3383C24.293 25.9281 24.0625 25.3717 24.0625 24.7915Z" fill="#5367FC"/>
</svg>
