<svg width="30" height="30" viewBox="0 0 30 30" fill="none" xmlns="http://www.w3.org/2000/svg">
<path fill-rule="evenodd" clip-rule="evenodd" d="M15 0C6.71575 0 0 6.71575 0 15C0 23.2843 6.71575 30 15 30C23.2843 30 30 23.2843 30 15C30 6.71575 23.2843 0 15 0ZM14.9777 16.262L9.37447 12.1947V20.7687H8.43835C7.91679 20.7687 7.50222 20.3542 7.50222 19.8326V10.3512C7.50222 10.3115 7.50466 10.2743 7.50929 10.2394C7.52629 10.0907 7.58054 9.94511 7.6761 9.8163C7.98366 9.40174 8.58547 9.30811 9.01341 9.61567L14.9911 13.9619L21.0089 9.56223C21.4235 9.25461 22.0119 9.34824 22.3195 9.77617C22.483 9.99655 22.5331 10.266 22.4799 10.5163V19.846C22.4799 20.3542 22.0654 20.7687 21.5439 20.7687H20.6077V12.1742L14.9777 16.262Z" fill="white"/>
</svg>
