<svg width="35" height="35" viewBox="0 0 35 35" fill="none" xmlns="http://www.w3.org/2000/svg">
<path d="M27.3 8.008V3.899C27.3 2.51825 22.911 0 17.5 0C12.0872 0 7.7 2.51825 7.7 3.899V8.008C7.7 11.7548 14.4847 14.847 14.4847 17.5C14.4847 20.1495 7.7 23.2418 7.7 26.9885V31.101C7.7 32.48 12.0872 35 17.5 35C22.911 35 27.3 32.48 27.3 31.0993V26.9867C27.3 23.24 20.5152 20.1477 20.5152 17.4982C20.5152 14.847 27.3 11.7548 27.3 8.008ZM10.3967 4.074C11.6147 3.30575 13.8967 2.1805 17.5962 2.1805C21.294 2.1805 24.6067 4.074 24.6067 4.074C24.8552 4.2245 25.8282 4.74425 25.1615 5.13975C23.695 6.0095 20.825 6.92475 17.5 6.92475C14.175 6.92475 11.403 5.91675 9.933 5.04525C9.26625 4.6515 10.3967 4.074 10.3967 4.074ZM18.3767 17.5C18.3767 19.5877 20.1197 20.9317 21.966 22.7255C23.3152 24.0345 25.1615 25.8282 25.1615 26.9867V29.3108C23.464 28.4655 18.3855 27.6395 18.3855 24.9287C18.3855 23.5585 16.6127 23.5585 16.6127 24.9287C16.6127 27.6395 11.5342 28.4655 9.83675 29.3108V26.9867C9.83675 25.8282 11.6847 24.0327 13.0322 22.7255C14.8785 20.9317 16.6215 19.5877 16.6215 17.5C16.6215 15.4123 14.8785 14.0682 13.0322 12.2745C11.683 10.962 9.83675 9.16825 9.83675 8.008L9.75625 6.2615C11.5517 7.22925 14.3972 8.148 17.5 8.148C20.601 8.148 23.4605 7.22925 25.2577 6.2615L25.1615 8.008C25.1615 9.1665 23.3135 10.962 21.966 12.2745C20.1215 14.0682 18.3767 15.4123 18.3767 17.5Z" fill="#5367FC"/>
</svg>
