<svg width="27" height="27" viewBox="0 0 27 27" fill="none" xmlns="http://www.w3.org/2000/svg">
<path fill-rule="evenodd" clip-rule="evenodd" d="M0.684204 13.1935C0.684204 5.90695 6.36582 0 13.3744 0C20.3831 0 26.0647 5.90695 26.0647 13.1935C26.0647 20.4801 20.3831 26.3871 13.3744 26.3871C6.36582 26.3871 0.684204 20.4801 0.684204 13.1935ZM13.3751 6.15699C11.5369 6.15699 11.3063 6.16534 10.5843 6.1995C9.86379 6.2338 9.37197 6.3524 8.94162 6.52641C8.49647 6.70614 8.11887 6.94655 7.74267 7.33782C7.36619 7.72894 7.13494 8.12152 6.9615 8.58418C6.79371 9.03174 6.6795 9.54322 6.64707 10.292C6.61478 11.0426 6.60631 11.2826 6.60631 13.1936C6.60631 15.1046 6.61449 15.3437 6.64721 16.0943C6.68034 16.8434 6.79441 17.3548 6.96165 17.8022C7.13466 18.265 7.3659 18.6576 7.74224 19.0487C8.1183 19.4401 8.49591 19.6811 8.94078 19.8608C9.37141 20.0348 9.86337 20.1534 10.5838 20.1877C11.3057 20.2219 11.5362 20.2302 13.3742 20.2302C15.2125 20.2302 15.4425 20.2219 16.1644 20.1877C16.885 20.1534 17.3773 20.0348 17.808 19.8608C18.253 19.6811 18.63 19.4401 19.0061 19.0487C19.3826 18.6576 19.6138 18.265 19.7872 17.8023C19.9536 17.3548 20.0678 16.8433 20.1017 16.0945C20.1341 15.3439 20.1426 15.1046 20.1426 13.1936C20.1426 11.2826 20.1341 11.0428 20.1017 10.2922C20.0678 9.54307 19.9536 9.03174 19.7872 8.58433C19.6138 8.12152 19.3826 7.72894 19.0061 7.33782C18.6296 6.94641 18.2531 6.70599 17.8075 6.52641C17.3761 6.3524 16.884 6.2338 16.1634 6.1995C15.4415 6.16534 15.2117 6.15699 13.373 6.15699H13.3751Z" fill="white"/>
<path fill-rule="evenodd" clip-rule="evenodd" d="M12.7679 7.42504C12.9481 7.42475 13.1492 7.42504 13.3751 7.42504C15.1822 7.42504 15.3964 7.43179 16.11 7.4655C16.7699 7.49688 17.128 7.61152 17.3666 7.70783C17.6825 7.83537 17.9077 7.98783 18.1444 8.23411C18.3813 8.48039 18.5279 8.71495 18.6509 9.04332C18.7435 9.29107 18.8539 9.66342 18.884 10.3495C18.9164 11.0913 18.9234 11.3141 18.9234 13.192C18.9234 15.0699 18.9164 15.2927 18.884 16.0345C18.8538 16.7206 18.7435 17.0929 18.6509 17.3407C18.5282 17.6691 18.3813 17.9029 18.1444 18.149C17.9075 18.3953 17.6826 18.5478 17.3666 18.6753C17.1283 18.772 16.7699 18.8864 16.11 18.9178C15.3965 18.9515 15.1822 18.9588 13.3751 18.9588C11.5678 18.9588 11.3536 18.9515 10.6402 18.9178C9.98026 18.8861 9.62211 18.7715 9.38339 18.6751C9.06754 18.5476 8.84194 18.3951 8.60505 18.1489C8.36816 17.9026 8.22152 17.6686 8.09856 17.3401C8.00592 17.0923 7.89552 16.72 7.86548 16.0339C7.83305 15.2921 7.82656 15.0693 7.82656 13.1902C7.82656 11.3112 7.83305 11.0895 7.86548 10.3477C7.89566 9.66167 8.00592 9.28931 8.09856 9.04127C8.22123 8.71289 8.36816 8.47834 8.60505 8.23206C8.84194 7.98578 9.06754 7.83332 9.38339 7.70548C9.62197 7.60873 9.98026 7.49438 10.6402 7.46287C11.2645 7.43355 11.5065 7.42475 12.7679 7.42329V7.42504ZM16.9879 8.59342C16.5395 8.59342 16.1757 8.9712 16.1757 9.43752C16.1757 9.9037 16.5395 10.2819 16.9879 10.2819C17.4363 10.2819 17.8001 9.9037 17.8001 9.43752C17.8001 8.97134 17.4363 8.59342 16.9879 8.59342ZM13.3751 9.58001C11.4556 9.58001 9.89932 11.198 9.89932 13.1936C9.89932 15.1892 11.4556 16.8065 13.3751 16.8065C15.2946 16.8065 16.8503 15.1892 16.8503 13.1936C16.8503 11.198 15.2946 9.58001 13.3751 9.58001Z" fill="white"/>
<path fill-rule="evenodd" clip-rule="evenodd" d="M13.3751 10.8481C14.621 10.8481 15.6311 11.8981 15.6311 13.1936C15.6311 14.4889 14.621 15.5392 13.3751 15.5392C12.129 15.5392 11.119 14.4889 11.119 13.1936C11.119 11.8981 12.129 10.8481 13.3751 10.8481Z" fill="white"/>
</svg>
