<svg width="117" height="118" viewBox="0 0 117 118" fill="none" xmlns="http://www.w3.org/2000/svg">
<path d="M113.773 104.128V60.6728C113.773 57.6496 113.157 54.658 111.96 51.8815C110.764 49.105 109.013 46.6019 106.816 44.5257L65.8759 5.83475C63.814 3.88536 61.0841 2.79919 58.2465 2.79919C55.409 2.79919 52.6791 3.88536 50.6172 5.83475L9.67739 44.5257C7.47978 46.6019 5.72918 49.105 4.53283 51.8815C3.33649 54.658 2.71958 57.6496 2.7199 60.6728V104.128C2.7199 107.073 3.88992 109.898 5.97258 111.981C8.05523 114.063 10.8799 115.233 13.8252 115.233H102.668C105.613 115.233 108.438 114.063 110.52 111.981C112.603 109.898 113.773 107.073 113.773 104.128Z" stroke="#7A7878" stroke-width="5.33056" stroke-linecap="round" stroke-linejoin="round"/>
</svg>
