<svg width="100" height="100" viewBox="0 0 100 100" fill="none" xmlns="http://www.w3.org/2000/svg">
<path d="M91.6667 83.3334V50.7251C91.6669 48.4565 91.204 46.2116 90.3063 44.1282C89.4085 42.0447 88.0949 40.1664 86.4458 38.6084L55.725 9.5751C54.1778 8.11229 52.1293 7.29724 50 7.29724C47.8707 7.29724 45.8222 8.11229 44.275 9.5751L13.5542 38.6084C11.9051 40.1664 10.5915 42.0447 9.69374 44.1282C8.79601 46.2116 8.33309 48.4565 8.33333 50.7251V83.3334C8.33333 85.5436 9.2113 87.6632 10.7741 89.226C12.3369 90.7888 14.4565 91.6668 16.6667 91.6668H83.3333C85.5435 91.6668 87.6631 90.7888 89.2259 89.226C90.7887 87.6632 91.6667 85.5436 91.6667 83.3334Z" stroke="#7A7878" stroke-width="4" stroke-linecap="round" stroke-linejoin="round"/>
<path d="M60.375 48.75C61.2038 48.75 61.9987 48.4208 62.5847 47.8347C63.1708 47.2487 63.5 46.4538 63.5 45.625C63.5 44.7962 63.1708 44.0013 62.5847 43.4153C61.9987 42.8292 61.2038 42.5 60.375 42.5C59.5462 42.5 58.7513 42.8292 58.1653 43.4153C57.5792 44.0013 57.25 44.7962 57.25 45.625C57.25 46.4538 57.5792 47.2487 58.1653 47.8347C58.7513 48.4208 59.5462 48.75 60.375 48.75ZM49.4375 67.5V65.9375H52.5625C52.9769 65.9375 53.3743 65.7729 53.6674 65.4799C53.9604 65.1868 54.125 64.7894 54.125 64.375V61.25H57.25C59.8748 61.2494 62.4328 60.4225 64.5613 58.8867C66.6899 57.3508 68.2809 55.1838 69.1089 52.6931C69.9369 50.2023 69.9598 47.514 69.1743 45.0095C68.3889 42.505 66.835 40.3113 64.7329 38.7394C62.6308 37.1675 60.0873 36.2972 57.4629 36.2519C54.8385 36.2066 52.2664 36.9885 50.1113 38.4869C47.9562 39.9853 46.3275 42.1241 45.4561 44.6C44.5847 47.076 44.5147 49.7634 45.2563 52.2813L33.1625 64.375C32.5776 64.9614 32.2493 65.7561 32.25 66.5844V70.625C32.25 71.4538 32.5792 72.2487 33.1653 72.8347C33.7513 73.4208 34.5462 73.75 35.375 73.75H41.625C42.4538 73.75 43.2487 73.4208 43.8347 72.8347C44.4208 72.2487 44.75 71.4538 44.75 70.625V69.0625H47.875C48.2894 69.0625 48.6868 68.8979 48.9799 68.6049C49.2729 68.3118 49.4375 67.9144 49.4375 67.5ZM47.875 48.75C47.875 46.8958 48.4248 45.0832 49.455 43.5415C50.4851 41.9998 51.9493 40.7982 53.6623 40.0886C55.3754 39.3791 57.2604 39.1934 59.079 39.5551C60.8975 39.9169 62.568 40.8098 63.8791 42.1209C65.1902 43.432 66.0831 45.1025 66.4449 46.921C66.8066 48.7396 66.6209 50.6246 65.9114 52.3377C65.2018 54.0507 64.0002 55.5149 62.4585 56.545C60.9168 57.5752 59.1042 58.125 57.25 58.125H52.5625C52.1481 58.125 51.7507 58.2896 51.4576 58.5826C51.1646 58.8757 51 59.2731 51 59.6875V62.8125H47.875C47.4606 62.8125 47.0632 62.9771 46.7701 63.2701C46.4771 63.5632 46.3125 63.9606 46.3125 64.375V65.9375H43.1875C42.7731 65.9375 42.3757 66.1021 42.0826 66.3951C41.7896 66.6882 41.625 67.0856 41.625 67.5V70.625H35.375V66.5844L48.1531 53.8063C48.3674 53.5922 48.5148 53.3206 48.5775 53.0243C48.6402 52.7281 48.6154 52.42 48.5063 52.1375C48.1 51.0875 47.875 49.95 47.875 48.75Z" fill="#7A7878"/>
</svg>
