<svg width="26" height="27" viewBox="0 0 26 27" fill="none" xmlns="http://www.w3.org/2000/svg">
<path fill-rule="evenodd" clip-rule="evenodd" d="M0.368408 13.1935C0.368408 5.90695 6.05002 0 13.0586 0C20.0673 0 25.7489 5.90695 25.7489 13.1935C25.7489 20.4801 20.0673 26.3871 13.0586 26.3871C6.05002 26.3871 0.368408 20.4801 0.368408 13.1935ZM9.33644 10.9273H6.46056V19.9108H9.33644V10.9273ZM9.52569 8.14847C9.50702 7.26765 8.90117 6.59676 7.91735 6.59676C6.93353 6.59676 6.29034 7.26765 6.29034 8.14847C6.29034 9.01105 6.91451 9.70125 7.88001 9.70125H7.89839C8.90117 9.70125 9.52569 9.01105 9.52569 8.14847ZM19.7081 14.7602C19.7081 12.0009 18.2894 10.7166 16.3969 10.7166C14.87 10.7166 14.1864 11.5886 13.8047 12.2002V10.9278H10.9285C10.9664 11.7708 10.9285 19.9113 10.9285 19.9113H13.8047V14.8942C13.8047 14.6257 13.8234 14.3579 13.8994 14.1656C14.1073 13.6293 14.5805 13.0739 15.375 13.0739C16.4161 13.0739 16.8323 13.8977 16.8323 15.1049V19.911H19.708L19.7081 14.7602Z" fill="white"/>
</svg>
