<svg width="35" height="35" viewBox="0 0 35 35" fill="none" xmlns="http://www.w3.org/2000/svg">
<path d="M17.5 18.958C19.9162 18.958 21.875 16.9993 21.875 14.583C21.875 12.1668 19.9162 10.208 17.5 10.208C15.0838 10.208 13.125 12.1668 13.125 14.583C13.125 16.9993 15.0838 18.958 17.5 18.958Z" stroke="#5367FC" stroke-width="2" stroke-linecap="round" stroke-linejoin="round"/>
<path d="M17.5 2.9165C14.4058 2.9165 11.4384 4.14567 9.25043 6.33359C7.06251 8.52152 5.83334 11.489 5.83334 14.5832C5.83334 17.3423 6.41959 19.1478 8.02084 21.1457L17.5 32.0832L26.9792 21.1457C28.5804 19.1478 29.1667 17.3423 29.1667 14.5832C29.1667 11.489 27.9375 8.52152 25.7496 6.33359C23.5617 4.14567 20.5942 2.9165 17.5 2.9165V2.9165Z" stroke="#5367FC" stroke-width="2" stroke-linecap="round" stroke-linejoin="round"/>
</svg>
