<svg width="30" height="30" viewBox="0 0 30 30" fill="none" xmlns="http://www.w3.org/2000/svg">
<path d="M23.2022 1.51758L20.8477 6.92695L25.3467 3.04055L23.2022 1.51758Z" fill="#5367FC"/>
<path d="M27.187 8.67961V6.41602L22.9181 7.72711L27.187 8.67961Z" fill="#5367FC"/>
<path d="M20.4314 0.9375H18.1294L19.373 5.49516L20.4314 0.9375Z" fill="#5367FC"/>
<path d="M29.0423 19.0841C29.1459 17.7224 28.8441 15.0758 28.3692 13.7207C28.013 12.7016 26.5439 12.7996 25.3153 13.085L25.125 12.0078C26.0536 11.6989 26.655 10.836 26.4989 9.95285C26.3508 9.103 25.5403 8.48613 24.5733 8.48613C24.3936 8.48646 24.2146 8.5077 24.0398 8.54941C23.4356 8.06097 22.4606 7.85566 21.4809 8.02957C21.1913 8.08038 20.9085 8.16437 20.6381 8.27988C20.2453 7.99113 19.7569 7.81863 19.2469 7.77691C19.1503 6.24175 17.9166 4.92363 16.2197 4.62503C15.6277 4.51859 15.0191 4.55166 14.4422 4.7216C14.0259 4.00535 13.2727 3.48832 12.3816 3.33128C11.5528 3.18363 10.6955 3.38144 10.0692 3.85066C9.76958 3.72259 9.45607 3.62978 9.135 3.5741C8.06906 3.38566 7.01156 3.61066 6.36328 4.14503C6.16905 4.0965 5.96958 4.0721 5.76937 4.07238C4.73812 4.07238 3.87187 4.73003 3.71109 5.6366C3.62015 6.15878 3.76734 6.68707 4.12828 7.123C4.41799 7.46717 4.80229 7.71881 5.23359 7.84675L5.02312 9.04253C3.6825 8.73175 2.08172 8.62488 1.69265 9.73582C1.17609 11.2143 0.84703 14.0989 0.959998 15.583C1.0725 17.0694 1.85109 18.7218 3.13875 19.7268L2.4825 23.4482C2.12484 25.4764 14.6456 27.6843 15.0037 25.6569L15.3459 23.7144L16.1592 28.325C16.4873 30.186 27.9736 28.16 27.6455 26.3L27.0441 22.8852C28.2244 21.9627 28.9378 20.4468 29.0423 19.0841ZM20.5289 9.38191L20.7853 9.24644C21.0542 9.10434 21.3436 9.00518 21.6431 8.95254C22.4236 8.81519 23.2195 9.00175 23.5692 9.39082L23.7834 9.62988L24.0844 9.5155C24.1734 9.48175 24.2555 9.45878 24.3337 9.44472C24.9422 9.33832 25.4953 9.65332 25.5769 10.116C25.6603 10.5903 25.238 11.0628 24.6375 11.1693C24.6192 11.1725 24.6005 11.1725 24.5827 11.1735L24.007 11.2218L24.7369 15.3632L16.5642 16.8046L16.6233 16.4699C17.3827 16.2946 17.978 15.726 18.1087 14.9825C18.1323 14.8497 18.1401 14.7145 18.1317 14.5799C18.7097 14.3235 19.1245 13.8219 19.2319 13.2149C19.2506 13.108 19.2591 12.9988 19.2567 12.8886C20.0184 12.4607 20.5467 11.7364 20.6953 10.895C20.7858 10.3766 20.7164 9.85769 20.5289 9.38191ZM4.85062 6.52535C4.66734 6.3041 4.59047 6.04675 4.63453 5.79878C4.72734 5.27191 5.34937 4.91003 6.03844 5.03378C6.12703 5.04925 6.21797 5.07503 6.3164 5.11253L6.61734 5.22785L6.83344 4.98785C7.22812 4.54816 8.09578 4.34144 8.97234 4.49707C9.30366 4.55377 9.62399 4.66229 9.92156 4.81863L10.2234 4.97753L10.4677 4.73988C10.8928 4.32644 11.5617 4.13941 12.218 4.25378C12.9487 4.38222 13.5384 4.84675 13.7583 5.46503L13.9266 5.93894L14.3873 5.73738C14.9132 5.51037 15.4946 5.44447 16.058 5.548C17.4305 5.78941 18.3994 6.89613 18.3136 8.12238L18.2906 8.44207L18.5803 8.57941C19.4339 8.983 19.9237 9.86847 19.7723 10.7314C19.6594 11.3718 19.2098 11.9132 18.5714 12.1808L18.2072 12.3332L18.2953 12.7175C18.323 12.8375 18.3267 12.9463 18.3084 13.0518C18.2428 13.4216 17.9273 13.7155 17.5031 13.8008L16.9852 13.9049L17.1502 14.4064C17.1975 14.5499 17.2092 14.6886 17.1862 14.8194C17.0953 15.3322 16.5262 15.6828 15.9056 15.5741C15.293 15.4663 14.8706 14.9511 14.9625 14.4271C14.9902 14.2714 15.0661 14.1257 15.187 13.9944L15.7716 13.3635L5.54203 11.5597L6.33797 7.04894L5.75812 7.00019C5.73703 6.99925 5.71453 6.99878 5.6925 6.99457C5.34984 6.93457 5.05078 6.76769 4.85062 6.52535ZM2.58844 15.8718C2.49328 14.5213 2.54765 12.4977 2.98359 11.2307C3.18234 10.6522 3.93797 10.6368 4.71281 10.7961L3.47859 17.7964C2.95547 17.2532 2.63672 16.5646 2.58844 15.8718ZM14.3705 24.0918C14.0798 25.7371 3.32109 23.8405 3.61219 22.1943L5.32547 12.4733L14.1014 14.0207C14.0747 14.1003 14.0541 14.1814 14.0395 14.2639C13.8591 15.2877 14.6081 16.2772 15.7116 16.4882L14.3705 24.0918ZM16.74 26.8893L15.7627 21.3496L16.3898 17.796L25.042 16.2613L26.6091 25.1497C26.8748 26.6591 17.0058 28.4 16.74 26.8893ZM26.7314 21.1147L25.5998 14.6933C26.3105 14.5475 27.0033 14.5621 27.1852 15.0927C27.5855 16.2547 27.6356 18.111 27.5475 19.3499C27.5044 19.9846 27.2114 20.616 26.7314 21.1147Z" fill="#5367FC"/>
<path d="M13.1386 10.7222C12.6689 10.7573 12.3581 11.0672 12.3581 11.4365C12.8634 10.8797 13.4292 11.0133 13.4292 11.0133C13.7775 10.2492 14.7511 9.95481 15.4753 10.6129C15.7416 10.2651 16.4494 10.26 16.8127 10.5168C16.6936 9.95528 15.877 9.81044 15.5114 10.1479C14.8434 9.46778 13.4367 9.54794 13.1386 10.7222Z" fill="#5367FC"/>
<path d="M12.2208 6.66765C13.05 6.14593 13.9561 6.60484 14.1642 7.41765C14.1642 7.41765 14.7445 7.38484 15.143 8.02047C15.2086 7.65718 14.9578 7.29765 14.5027 7.1814C14.4159 5.9739 13.0472 5.65047 12.2681 6.20406C11.9686 5.80797 11.1394 5.80843 10.9214 6.34093C11.3236 6.15062 12.0206 6.27906 12.2208 6.66765Z" fill="#5367FC"/>
</svg>
