<svg width="30" height="50" viewBox="0 0 30 50" fill="none" xmlns="http://www.w3.org/2000/svg">
<path d="M2.36842 50H27.6316C28.9374 50 30 48.9484 30 47.6562V2.34375C30 1.05156 28.9374 0 27.6316 0H2.36842C1.06263 0 0 1.05156 0 2.34375V47.6562C0 48.9484 1.06263 50 2.36842 50ZM1.57895 2.34375C1.57895 2.13655 1.66212 1.93784 1.81018 1.79132C1.95823 1.64481 2.15904 1.5625 2.36842 1.5625H27.6316C27.841 1.5625 28.0418 1.64481 28.1898 1.79132C28.3379 1.93784 28.4211 2.13655 28.4211 2.34375V47.6562C28.4211 47.8634 28.3379 48.0622 28.1898 48.2087C28.0418 48.3552 27.841 48.4375 27.6316 48.4375H2.36842C2.15904 48.4375 1.95823 48.3552 1.81018 48.2087C1.66212 48.0622 1.57895 47.8634 1.57895 47.6562V2.34375Z" fill="#999999"/>
<path d="M3.94737 42.1875H26.0526C26.262 42.1875 26.4628 42.1052 26.6109 41.9587C26.7589 41.8122 26.8421 41.6134 26.8421 41.4062V8.59375C26.8421 8.38655 26.7589 8.18784 26.6109 8.04132C26.4628 7.89481 26.262 7.8125 26.0526 7.8125H3.94737C3.73799 7.8125 3.53718 7.89481 3.38913 8.04132C3.24107 8.18784 3.1579 8.38655 3.1579 8.59375V41.4062C3.1579 41.6134 3.24107 41.8122 3.38913 41.9587C3.53718 42.1052 3.73799 42.1875 3.94737 42.1875ZM4.73685 9.375H25.2632V40.625H4.73685V9.375Z" fill="#999999"/>
<path d="M15.7895 46.875C16.6615 46.875 17.3684 46.1754 17.3684 45.3125C17.3684 44.4496 16.6615 43.75 15.7895 43.75C14.9174 43.75 14.2105 44.4496 14.2105 45.3125C14.2105 46.1754 14.9174 46.875 15.7895 46.875Z" fill="#999999"/>
<path d="M11.8421 6.25H18.1579C18.3673 6.25 18.5681 6.16769 18.7161 6.02118C18.8642 5.87466 18.9474 5.67595 18.9474 5.46875C18.9474 5.26155 18.8642 5.06284 18.7161 4.91632C18.5681 4.76981 18.3673 4.6875 18.1579 4.6875H11.8421C11.6327 4.6875 11.4319 4.76981 11.2839 4.91632C11.1358 5.06284 11.0526 5.26155 11.0526 5.46875C11.0526 5.67595 11.1358 5.87466 11.2839 6.02118C11.4319 6.16769 11.6327 6.25 11.8421 6.25Z" fill="#999999"/>
<g clip-path="url(#clip0_4_19)">
<path d="M22.5 29.4687V31.8125C22.5009 32.0301 22.4581 32.2454 22.3744 32.4448C22.2907 32.6441 22.168 32.8231 22.0141 32.9702C21.8602 33.1173 21.6784 33.2293 21.4806 33.299C21.2827 33.3687 21.073 33.3946 20.865 33.375C18.5571 33.1138 16.3403 32.2923 14.3925 30.9765C12.5804 29.7771 11.044 28.1767 9.89251 26.289C8.62499 24.2509 7.83619 21.9304 7.59001 19.5156C7.57127 19.2996 7.59592 19.0818 7.66239 18.8763C7.72886 18.6707 7.83569 18.4818 7.97609 18.3216C8.11648 18.1614 8.28736 18.0334 8.47785 17.9457C8.66834 17.8581 8.87427 17.8127 9.08251 17.8125H11.3325C11.6965 17.8088 12.0494 17.943 12.3253 18.1902C12.6013 18.4375 12.7816 18.7808 12.8325 19.1562C12.9275 19.9063 13.1036 20.6427 13.3575 21.3515C13.4584 21.6312 13.4803 21.9351 13.4204 22.2272C13.3606 22.5194 13.2217 22.7876 13.02 23L12.0675 23.9922C13.1352 25.9481 14.6899 27.5675 16.5675 28.6797L17.52 27.6875C17.7239 27.4774 17.9814 27.3327 18.2619 27.2704C18.5423 27.2081 18.8341 27.2308 19.1025 27.3359C19.783 27.6004 20.49 27.7839 21.21 27.8828C21.5743 27.9363 21.9071 28.1275 22.1449 28.4199C22.3828 28.7123 22.5091 29.0856 22.5 29.4687Z" stroke="#03D8A7" stroke-width="2" stroke-linecap="round" stroke-linejoin="round"/>
</g>
<defs>
<clipPath id="clip0_4_19">
<rect width="18" height="18.75" fill="white" transform="translate(6 16.25)"/>
</clipPath>
</defs>
</svg>
