<svg width="30" height="30" viewBox="0 0 30 30" fill="none" xmlns="http://www.w3.org/2000/svg">
<path d="M12.5 10.0002L8.4375 14.0627C8.825 14.2127 9.1375 14.4002 9.4 14.5502C9.8625 14.8377 10.1375 15.0002 10.8375 15.0002C11.5375 15.0002 11.8125 14.8377 12.275 14.5502C12.85 14.2127 13.625 13.7502 15.0125 13.7502C16.4 13.7502 17.175 14.2127 17.7375 14.5502C18.2 14.8252 18.4875 15.0002 19.175 15.0002C19.8625 15.0002 20.15 14.8377 20.6125 14.5502C20.7625 14.4627 20.9375 14.3627 21.125 14.2627L13.1 6.2502C11.1625 4.3127 9.375 3.7377 6.25 3.7502V6.8752C8.525 6.8627 9.8625 7.3627 11.25 8.7502L12.5 10.0002ZM27.5 20.6252H27.475H27.5ZM6.6875 19.3752C7.375 19.3752 7.6625 19.5502 8.125 19.8252C8.6875 20.1627 9.4625 20.6252 10.85 20.6252C12.2375 20.6252 13.0125 20.1627 13.575 19.8252C14.0375 19.5377 14.3125 19.3752 15.0125 19.3752C15.7 19.3752 15.9875 19.5502 16.45 19.8252C17.0125 20.1627 17.7875 20.6252 19.175 20.6252C20.5625 20.6252 21.3375 20.1627 21.9 19.8252C22.3625 19.5377 22.6375 19.3752 23.3375 19.3752C24.025 19.3752 24.3125 19.5502 24.775 19.8252C25.3375 20.1627 26.1 20.6127 27.475 20.6252V18.1252C26.7875 18.1252 26.5 17.9502 26.0375 17.6752C25.475 17.3377 24.7 16.8752 23.3125 16.8752C21.925 16.8752 21.15 17.3377 20.5875 17.6752C20.125 17.9627 19.8375 18.1252 19.15 18.1252C18.4625 18.1252 18.175 17.9502 17.7125 17.6752C17.15 17.3377 16.375 16.8752 14.9875 16.8752C13.6 16.8752 12.825 17.3377 12.2625 17.6752C11.8 17.9627 11.525 18.1252 10.825 18.1252C10.1375 18.1252 9.85 17.9502 9.3875 17.6752C8.825 17.3377 8.05 16.8752 6.6625 16.8752C5.275 16.8752 4.5 17.3377 3.9375 17.6752C3.475 17.9627 3.2 18.1252 2.5 18.1252V20.6252C3.8875 20.6252 4.6625 20.1627 5.25 19.8252C5.7125 19.5377 6 19.3752 6.6875 19.3752ZM23.3375 22.5002C21.95 22.5002 21.175 22.9627 20.6125 23.3002C20.15 23.5877 19.8625 23.7502 19.175 23.7502C18.4875 23.7502 18.2 23.5752 17.7375 23.3002C17.175 22.9627 16.4 22.5002 15.0125 22.5002C13.625 22.5002 12.85 22.9627 12.275 23.3002C11.8125 23.5877 11.5375 23.7502 10.8375 23.7502C10.1375 23.7502 9.8625 23.5877 9.4 23.3002C8.8375 22.9627 8.0625 22.5002 6.675 22.5002C5.2875 22.5002 4.5125 22.9627 3.9375 23.3002C3.475 23.5877 3.2 23.7502 2.5 23.7502V26.2502C3.8875 26.2502 4.6625 25.7877 5.2375 25.4502C5.7 25.1627 5.9875 25.0002 6.675 25.0002C7.3625 25.0002 7.65 25.1627 8.1125 25.4502C8.675 25.7877 9.45 26.2502 10.8375 26.2502C12.225 26.2502 13 25.7877 13.575 25.4502C14.0375 25.1627 14.3125 25.0002 15.0125 25.0002C15.7 25.0002 15.9875 25.1752 16.45 25.4502C17.0125 25.7877 17.7875 26.2502 19.175 26.2502C20.5625 26.2502 21.325 25.7877 21.9 25.4502C22.3625 25.1627 22.6375 25.0002 23.3375 25.0002C24.025 25.0002 24.3125 25.1752 24.775 25.4502C25.3375 25.7877 26.1125 26.2502 27.5 26.2502V23.7502C26.8 23.7502 26.525 23.5877 26.0625 23.3002C25.5 22.9627 24.725 22.5002 23.3375 22.5002Z" fill="#5367FC"/>
<path d="M20.625 10C22.3509 10 23.75 8.60089 23.75 6.875C23.75 5.14911 22.3509 3.75 20.625 3.75C18.8991 3.75 17.5 5.14911 17.5 6.875C17.5 8.60089 18.8991 10 20.625 10Z" fill="#5367FC"/>
</svg>
