<svg width="32" height="32" viewBox="0 0 32 32" fill="none" xmlns="http://www.w3.org/2000/svg">
<g clip-path="url(#clip0_10_175)">
<path d="M24.5 27C25.3284 27 26 26.3284 26 25.5C26 24.6716 25.3284 24 24.5 24C23.6716 24 23 24.6716 23 25.5C23 26.3284 23.6716 27 24.5 27Z" fill="#5367FC"/>
<path d="M21.5 31C22.3284 31 23 30.3284 23 29.5C23 28.6716 22.3284 28 21.5 28C20.6716 28 20 28.6716 20 29.5C20 30.3284 20.6716 31 21.5 31Z" fill="#5367FC"/>
<path d="M15.868 30.4959L14.132 29.5039L17.276 23.9999H11.277L16.132 15.5039L17.868 16.4959L14.723 21.9999H20.724L15.868 30.4959Z" fill="#5367FC"/>
<path d="M9.00002 31.9998C8.82962 31.9997 8.66208 31.9561 8.51329 31.8731C8.36449 31.79 8.23938 31.6704 8.14982 31.5254C8.06026 31.3805 8.00923 31.215 8.00156 31.0448C7.9939 30.8746 8.02985 30.7052 8.10602 30.5528L10.106 26.5528C10.1622 26.4312 10.2422 26.3222 10.3413 26.2321C10.4404 26.142 10.5566 26.0728 10.683 26.0285C10.8094 25.9842 10.9434 25.9657 11.077 25.9742C11.2107 25.9826 11.3413 26.0178 11.461 26.0777C11.5808 26.1376 11.6874 26.221 11.7743 26.3228C11.8613 26.4247 11.9269 26.5429 11.9673 26.6706C12.0077 26.7983 12.022 26.9328 12.0094 27.0662C11.9968 27.1995 11.9576 27.3289 11.894 27.4468L9.89402 31.4468C9.81121 31.613 9.68366 31.7529 9.52573 31.8506C9.36779 31.9482 9.18573 31.9999 9.00002 31.9998Z" fill="#5367FC"/>
<path d="M24.8 9.13603C24.3739 7.11782 23.267 5.3074 21.6649 4.00821C20.0628 2.70901 18.0627 2 16 2C13.9373 2 11.9373 2.70901 10.3352 4.00821C8.73302 5.3074 7.62614 7.11782 7.20003 9.13603C5.71296 9.43845 4.37879 10.2522 3.42923 11.4359C2.47967 12.6196 1.9747 14.0985 2.00203 15.6157C2.02936 17.133 2.58726 18.5928 3.57884 19.7415C4.57042 20.8902 5.93304 21.6554 7.43003 21.904L6.10603 24.553C6.04246 24.6709 6.00322 24.8004 5.99064 24.9337C5.97805 25.067 5.99237 25.2015 6.03275 25.3292C6.07313 25.4569 6.13875 25.5752 6.22572 25.677C6.31268 25.7789 6.41921 25.8622 6.539 25.9221C6.65878 25.982 6.78937 26.0172 6.92303 26.0257C7.05669 26.0341 7.19068 26.0157 7.31706 25.9714C7.44344 25.927 7.55963 25.8578 7.65875 25.7677C7.75786 25.6777 7.83787 25.5686 7.89403 25.447L9.89403 21.447C10.0125 21.21 10.0321 20.9357 9.94848 20.6843C9.86486 20.4328 9.68487 20.2249 9.44803 20.106C9.30839 20.039 9.15485 20.0061 9.00003 20.01V20H8.50003C7.33567 20.0038 6.21523 19.5558 5.37444 18.7503C4.53365 17.9448 4.03806 16.8446 3.99194 15.6812C3.94582 14.5177 4.35277 13.3817 5.12716 12.5122C5.90155 11.6427 6.98302 11.1074 8.14403 11.019L8.96003 10.955L9.05903 10.143C9.26777 8.44905 10.0887 6.88986 11.3673 5.75918C12.6459 4.6285 14.2937 4.00438 16.0005 4.00438C17.7073 4.00438 19.3552 4.6285 20.6338 5.75918C21.9123 6.88986 22.7333 8.44905 22.942 10.143L23.041 10.955L23.856 11.019C25.017 11.1074 26.0985 11.6427 26.8729 12.5122C27.6473 13.3817 28.0542 14.5177 28.0081 15.6812C27.962 16.8446 27.4664 17.9448 26.6256 18.7503C25.7848 19.5558 24.6644 20.0038 23.5 20H23V22H23.5C25.1112 22.0017 26.6656 21.4047 27.8613 20.3248C29.0571 19.245 29.8089 17.7593 29.9709 16.1563C30.1329 14.5532 29.6935 12.9472 28.738 11.6499C27.7825 10.3527 26.379 9.45673 24.8 9.13603Z" fill="#5367FC"/>
</g>
<defs>
<clipPath id="clip0_10_175">
<rect width="32" height="32" fill="white"/>
</clipPath>
</defs>
</svg>
