<svg width="30" height="30" viewBox="0 0 30 30" fill="none" xmlns="http://www.w3.org/2000/svg">
<path d="M15 8.125C15.2486 8.125 15.4871 8.02623 15.6629 7.85041C15.8387 7.6746 15.9375 7.43614 15.9375 7.1875C15.9375 6.93886 15.8387 6.7004 15.6629 6.52459C15.4871 6.34877 15.2486 6.25 15 6.25C14.7514 6.25 14.5129 6.34877 14.3371 6.52459C14.1613 6.7004 14.0625 6.93886 14.0625 7.1875C14.0625 7.43614 14.1613 7.6746 14.3371 7.85041C14.5129 8.02623 14.7514 8.125 15 8.125Z" fill="#5367FC"/>
<path fill-rule="evenodd" clip-rule="evenodd" d="M14.885 3.76075L14.88 3.762L14.8656 3.7645L14.8137 3.7745L14.62 3.81325C14.4538 3.847 14.2169 3.897 13.9338 3.96138C13.3681 4.09013 12.6088 4.27825 11.8463 4.51388C11.0913 4.747 10.3006 5.037 9.6875 5.37638C9.3825 5.54513 9.09 5.74325 8.86688 5.97638C8.645 6.207 8.4375 6.53013 8.4375 6.93575C8.4375 8.02638 8.74375 8.82513 9.0675 9.36075C9.22688 9.6245 9.38875 9.82138 9.51625 9.95638C9.5225 10.0283 9.53188 10.1089 9.54938 10.1964C9.6125 10.5251 9.77062 10.9439 10.1331 11.3508C9.96051 12.0847 9.9561 12.8481 10.1202 13.584C10.2843 14.3198 10.6128 15.009 11.0809 15.6C11.549 16.191 12.1447 16.6685 12.8235 16.9968C13.5022 17.325 14.2464 17.4955 15.0003 17.4955C15.7543 17.4955 16.4984 17.325 17.1772 16.9968C17.8559 16.6685 18.4516 16.191 18.9197 15.6C19.3879 15.009 19.7163 14.3198 19.8804 13.584C20.0445 12.8481 20.0401 12.0847 19.8675 11.3508C20.2294 10.9439 20.3875 10.5258 20.4506 10.1964C20.4681 10.1089 20.4781 10.0283 20.4837 9.95638C20.654 9.77426 20.8044 9.5746 20.9325 9.36075C21.2569 8.82513 21.5625 8.02638 21.5625 6.93575C21.5625 6.53013 21.355 6.207 21.1331 5.97638C20.91 5.74325 20.6175 5.54513 20.3125 5.37638C19.6994 5.037 18.9087 4.747 18.1531 4.51388C17.4646 4.304 16.7685 4.11971 16.0662 3.96138C15.7738 3.89474 15.4805 3.83223 15.1863 3.77388L15.1344 3.7645L15.12 3.762L15.115 3.76075L15 3.7395L14.885 3.76075ZM15 4.37513L15.115 3.76075L15 4.37513ZM14.885 3.76075L15 4.37513L14.885 3.76075ZM15 11.5626C16.3794 11.5626 17.3056 11.3839 17.925 11.1514C18.4494 10.9545 18.755 10.7195 18.9313 10.5214C18.9956 10.4495 19.0463 10.3795 19.0863 10.3126H10.9137C10.9537 10.3795 11.0044 10.4501 11.0681 10.5214C11.2456 10.7195 11.5506 10.9545 12.0744 11.1514C12.6944 11.3839 13.6206 11.5626 15 11.5626ZM19.6075 9.06263H10.3925C10.2967 8.95453 10.2111 8.83778 10.1369 8.71388C9.9225 8.3595 9.69 7.78638 9.6875 6.94888C9.70838 6.90875 9.73584 6.87241 9.76875 6.84138C9.87 6.73575 10.0412 6.60888 10.2931 6.47013C10.7931 6.19325 11.4869 5.93325 12.2156 5.70763C12.8739 5.50746 13.5394 5.33172 14.2106 5.18075C14.473 5.12103 14.7361 5.06478 15 5.012C15.0356 5.01825 15.0794 5.02763 15.13 5.03763C15.2888 5.07013 15.5163 5.11888 15.7894 5.18075C16.3369 5.30513 17.0625 5.48513 17.7844 5.70825C18.5131 5.93325 19.2069 6.19325 19.7069 6.47013C19.9587 6.60888 20.13 6.73575 20.2319 6.84138C20.2881 6.90075 20.3069 6.93575 20.3125 6.94888C20.31 7.78638 20.0775 8.3595 19.8625 8.71388C19.77 8.86825 19.6781 8.98325 19.6075 9.06263ZM11.25 12.5001C11.25 12.3876 11.255 12.2764 11.2644 12.1664C12.1006 12.5583 13.2981 12.8126 15 12.8126C16.4656 12.8126 17.5556 12.6251 18.3638 12.322C18.495 12.2733 18.6187 12.2208 18.7356 12.1658C18.7799 12.6698 18.7217 13.1776 18.5645 13.6586C18.4073 14.1396 18.1544 14.5838 17.821 14.9644C17.4876 15.3451 17.0807 15.6543 16.6246 15.8735C16.1685 16.0928 15.6728 16.2174 15.1673 16.24C14.6618 16.2626 14.157 16.1826 13.6832 16.0049C13.2094 15.8272 12.7765 15.5555 12.4105 15.2061C12.0445 14.8567 11.753 14.4368 11.5536 13.9718C11.3541 13.5067 11.2509 13.0061 11.25 12.5001ZM9.68562 6.9545V6.95263V6.9545Z" fill="#5367FC"/>
<path d="M20.625 21.25C21.0419 21.6669 21.875 22.0831 21.875 22.0831C21.875 22.0831 21.4388 23.75 20.625 23.75C19.8112 23.75 19.375 22.0831 19.375 22.0831C19.375 22.0831 20.2081 21.6669 20.625 21.25Z" fill="#5367FC"/>
<path fill-rule="evenodd" clip-rule="evenodd" d="M12.8125 19.375C12.8125 19.0435 12.9442 18.7255 13.1786 18.4911C13.413 18.2567 13.731 18.125 14.0625 18.125H15.9375C16.269 18.125 16.587 18.2567 16.8214 18.4911C17.0558 18.7255 17.1875 19.0435 17.1875 19.375V20.2387C17.1875 20.4423 17.1378 20.6427 17.0427 20.8226C16.9476 21.0026 16.81 21.1566 16.6419 21.2713L16.7125 21.625L18.8575 19.0206C18.9298 18.9328 19.0247 18.8663 19.132 18.8284C19.2392 18.7906 19.3548 18.7827 19.4662 18.8056C21.0688 19.1381 22.7081 19.6419 23.9631 20.3331C25.1769 21.0019 26.25 21.9725 26.25 23.3113V25.625C26.25 25.7908 26.1842 25.9497 26.0669 26.0669C25.9497 26.1842 25.7908 26.25 25.625 26.25H4.375C4.20924 26.25 4.05027 26.1842 3.93306 26.0669C3.81585 25.9497 3.75 25.7908 3.75 25.625V23.3113C3.75 21.98 4.84375 21.0156 6.0575 20.3525C7.3175 19.6631 8.9575 19.1556 10.5406 18.8188C10.6526 18.795 10.7689 18.8024 10.8769 18.8402C10.9849 18.878 11.0804 18.9447 11.1531 19.0331L13.2969 21.6369L13.3644 21.2756C13.1944 21.1612 13.0552 21.0067 12.9589 20.8258C12.8627 20.6449 12.8124 20.443 12.8125 20.2381V19.375ZM15.325 21.06L15.6869 22.8706L15 23.7044L14.335 22.8969L14.6769 21.0512C14.7016 20.9179 14.6823 20.7801 14.6219 20.6587C14.5615 20.5373 14.4632 20.4388 14.3419 20.3781L14.0625 20.2387V19.375H15.9375V20.2387L15.6581 20.3787C15.5355 20.44 15.4364 20.5398 15.3761 20.6629C15.3158 20.786 15.2976 20.9256 15.3244 21.06H15.325ZM15.5519 25L19.5794 20.1094C20.9919 20.4256 22.3463 20.87 23.3594 21.4281C24.5025 22.0575 25 22.7081 25 23.3113V25H15.5525H15.5519ZM10.4306 20.1231L14.4475 25H5V23.3113C5 22.7275 5.5 22.0819 6.65688 21.4488C7.6775 20.8906 9.03438 20.4437 10.4319 20.1231H10.4306Z" fill="#5367FC"/>
</svg>
