<svg width="27" height="27" viewBox="0 0 27 27" fill="none" xmlns="http://www.w3.org/2000/svg">
<path fill-rule="evenodd" clip-rule="evenodd" d="M26.1173 13.1935C26.1173 20.4801 20.4357 26.3871 13.4271 26.3871C6.41845 26.3871 0.736816 20.4801 0.736816 13.1935C0.736816 5.90697 6.41845 0 13.4271 0C20.4357 0 26.1173 5.90697 26.1173 13.1935ZM9.23478 11.985C7.96354 12.562 6.65739 13.1549 5.46301 13.8389C4.83934 14.3137 5.66823 14.6495 6.44589 14.9645C6.56951 15.0146 6.69182 15.0641 6.80682 15.1136C6.90253 15.1442 6.99982 15.1764 7.09843 15.2091C7.96333 15.4955 8.92768 15.815 9.76735 15.3345C11.1467 14.5107 12.4483 13.5583 13.749 12.6067C14.1751 12.2949 14.6012 11.9832 15.0298 11.6761C15.0499 11.6628 15.0725 11.6475 15.0973 11.6308C15.4624 11.3847 16.2836 10.8313 15.9799 11.5939C15.2616 12.4106 14.4922 13.1335 13.7187 13.8604C13.1973 14.3502 12.674 14.8419 12.1633 15.3653C11.7184 15.741 11.2564 16.4968 11.7546 17.023C12.9019 17.8581 14.0672 18.6729 15.2318 19.4872C15.6108 19.7522 15.9897 20.0172 16.3679 20.2828C17.0089 20.8148 18.0106 20.3845 18.1515 19.5531C18.2142 19.1707 18.2771 18.7883 18.34 18.4058C18.6877 16.2923 19.0356 14.1779 19.3428 12.0575C19.3846 11.7249 19.4319 11.3923 19.4793 11.0595C19.5941 10.253 19.709 9.44553 19.7449 8.63468C19.6524 7.82547 18.7087 8.00342 18.1835 8.18538C15.4841 9.25329 12.8116 10.4004 10.1497 11.5677C9.8482 11.7065 9.54252 11.8453 9.23478 11.985Z" fill="white"/>
</svg>
