<svg width="26" height="27" viewBox="0 0 26 27" fill="none" xmlns="http://www.w3.org/2000/svg">
<path fill-rule="evenodd" clip-rule="evenodd" d="M0.0526123 13.1935C0.0526123 5.90695 5.73423 0 12.7428 0C19.7515 0 25.4331 5.90695 25.4331 13.1935C25.4331 20.4801 19.7515 26.3871 12.7428 26.3871C5.73423 26.3871 0.0526123 20.4801 0.0526123 13.1935ZM12.3628 10.7239L12.3894 11.1804L11.9456 11.1245C10.33 10.9102 8.91867 10.1835 7.72034 8.96299L7.13449 8.35739L6.98358 8.8046C6.66403 9.80151 6.86819 10.8543 7.53393 11.5624C7.88899 11.9537 7.8091 12.0096 7.19662 11.7767C6.98358 11.7021 6.79718 11.6462 6.77942 11.6742C6.71729 11.7394 6.93032 12.5872 7.09898 12.9227C7.32977 13.3885 7.80023 13.845 8.31507 14.1152L8.75002 14.3295L8.23518 14.3388C7.73809 14.3388 7.72034 14.3481 7.7736 14.5438C7.95113 15.1494 8.65238 15.7922 9.43351 16.0718L9.98386 16.2674L9.50453 16.5655C8.7944 16.9941 7.96001 17.2364 7.12561 17.255C6.72616 17.2643 6.39773 17.3016 6.39773 17.3295C6.39773 17.4227 7.48067 17.9444 8.11091 18.1494C10.0016 18.755 12.2474 18.4941 13.9339 17.46C15.1323 16.7239 16.3306 15.2612 16.8898 13.845C17.1916 13.0904 17.4934 11.7115 17.4934 11.05C17.4934 10.6214 17.5201 10.5655 18.0171 10.0531C18.3101 9.75492 18.5852 9.42883 18.6385 9.33566C18.7273 9.15864 18.7184 9.15864 18.2657 9.31703C17.5112 9.59653 17.4047 9.55927 17.7775 9.14001C18.0527 8.84187 18.3811 8.30149 18.3811 8.1431C18.3811 8.11515 18.2479 8.16174 18.097 8.24559C17.9373 8.33876 17.5822 8.47851 17.3159 8.56236L16.8366 8.72075L16.4016 8.41329C16.1619 8.24559 15.8246 8.05925 15.6471 8.00335C15.1944 7.87291 14.502 7.89155 14.0937 8.04062C12.9841 8.45988 12.2829 9.54063 12.3628 10.7239Z" fill="white"/>
</svg>
